<svg xmlns="http://www.w3.org/2000/svg" xmlns:xlink="http://www.w3.org/1999/xlink" width="524" height="421" fill="none" overflow="visible"><g><g><g><defs><linearGradient id="idid_stLIq4M6Eg534884715" x1="0.49751243781094523" x2="0.5024875621890548" y1="0" y2="1"><stop offset="0" stop-color="rgb(99, 141, 236)" stop-opacity="1"></stop><stop offset="1" stop-color="rgba(92, 105, 247, 0)" stop-opacity="0"></stop></linearGradient></defs><path d="M 0 49 C 0 31.327 14.327 17 32 17 L 464 17 C 481.673 17 496 31.327 496 49 L 496 301 C 496 318.673 481.673 333 464 333 L 32 333 C 14.327 333 0 318.673 0 301 Z" fill="url(#idid_stLIq4M6Eg534884715)"></path></g><g><defs><path d="M 0 32 C 0 14.327 14.327 0 32 0 L 215.167 0 C 221.801 0 228.139 2.746 232.676 7.586 L 259.259 35.943 C 262.284 39.169 266.509 41 270.932 41 L 464 41 C 481.673 41 496 55.327 496 73 L 496 325 C 496 342.673 481.673 357 464 357 L 32 357 C 14.327 357 0 342.673 0 325 Z" id="a1144z"></path><filter id="a1146z" filterUnits="objectBoundingBox" x="-5.6%" y="-6.2%" width="111.3%" height="112.3%"><feOffset dx="7" dy="-1" in="SourceAlpha" result="a1149z"></feOffset><feGaussianBlur stdDeviation="5" in="a1149z" result="a1150z"></feGaussianBlur><feFlood flood-color="rgba(255, 255, 255, 0.35)" result="a1151z"></feFlood><feComposite in="a1151z" in2="a1150z" operator="in" result="a1147z"></feComposite></filter><linearGradient id="idid_ojzvqOnRRg534884715" x1="0.49751243781094523" x2="0.5024875621890548" y1="0" y2="1"><stop offset="0" stop-color="rgb(99, 141, 236)" stop-opacity="1"></stop><stop offset="1" stop-color="rgba(92, 105, 247, 0)" stop-opacity="0"></stop></linearGradient></defs><mask id="a1148z" x="-5.6%" y="-6.2%" width="111.3%" height="112.3%"><rect x="-5.6%" y="-6.2%" width="111.3%" height="112.3%" fill="white"></rect><use href="#a1144z" fill="black"></use></mask><g filter="url(#a1146z)" mask="url(#a1148z)"><use fill="black" stroke="black" stroke-width="0" xlink:href="#a1144z" clip-path="url(#a1145z)"></use></g><use xlink:href="#a1144z" fill="url(#idid_ojzvqOnRRg534884715)" clip-path="url(#a1145z)" stroke-width="0"></use></g></g><g transform="translate(28 64)"><g><defs><linearGradient id="idid_gKnvHkcRHg2007273700" x1="0.49751243781094523" x2="0.5024875621890548" y1="0" y2="1"><stop offset="0" stop-color="rgb(103, 147, 240)" stop-opacity="1"></stop><stop offset="1" stop-color="rgb(38, 66, 192)" stop-opacity="1"></stop></linearGradient></defs><path d="M 0 42 C 0 24.327 14.327 10 32 10 L 464 10 C 481.673 10 496 24.327 496 42 L 496 294 C 496 311.673 481.673 326 464 326 L 32 326 C 14.327 326 0 311.673 0 294 Z" fill="url(#idid_gKnvHkcRHg2007273700)" stroke-width="0.5" stroke="rgba(255, 255, 255, 0.58)"></path></g><g><defs><path d="M 0 32 C 0 14.327 14.327 0 32 0 L 215.167 0 C 221.801 0 228.139 2.746 232.676 7.586 L 259.259 35.943 C 262.284 39.169 266.509 41 270.932 41 L 464 41 C 481.673 41 496 55.327 496 73 L 496 325 C 496 342.673 481.673 357 464 357 L 32 357 C 14.327 357 0 342.673 0 325 Z" id="a1154z"></path><filter id="a1156z" filterUnits="objectBoundingBox" x="-8.2%" y="-11.4%" width="116.4%" height="122.8%"><feOffset dx="4" dy="-4" in="SourceAlpha" result="a1159z"></feOffset><feGaussianBlur stdDeviation="8.5" in="a1159z" result="a1160z"></feGaussianBlur><feFlood flood-color="rgba(255, 255, 255, 0.63)" result="a1161z"></feFlood><feComposite in="a1161z" in2="a1160z" operator="in" result="a1157z"></feComposite></filter><linearGradient id="idid_hsO6ozGq3g2007273700" x1="0.49751243781094523" x2="0.5024875621890548" y1="0" y2="1"><stop offset="0" stop-color="rgb(103, 147, 240)" stop-opacity="1"></stop><stop offset="1" stop-color="rgb(38, 66, 192)" stop-opacity="1"></stop></linearGradient></defs><mask id="a1158z" x="-8.2%" y="-11.4%" width="116.4%" height="122.8%"><rect x="-8.2%" y="-11.4%" width="116.4%" height="122.8%" fill="white"></rect><use href="#a1154z" fill="black"></use></mask><g filter="url(#a1156z)" mask="url(#a1158z)"><use stroke-width="0.5" stroke="black" fill="black" xlink:href="#a1154z" clip-path="url(#a1155z)"></use></g><use xlink:href="#a1154z" fill="url(#idid_hsO6ozGq3g2007273700)" clip-path="url(#a1155z)" stroke-width="0.5" stroke="rgba(255, 255, 255, 0.58)"></use></g></g><g transform="translate(82 141)"><g><defs><path d="M 150 20 C 150 8.954 158.954 0 170 0 L 230 0 C 241.046 0 250 8.954 250 20 L 250 80 C 250 91.046 241.046 100 230 100 L 170 100 C 158.954 100 150 91.046 150 80 Z" id="a1162z"></path><filter id="a1164z" filterUnits="objectBoundingBox" x="-10.5%" y="-12.5%" width="121.0%" height="125.0%"><feOffset dx="0" dy="2" in="SourceAlpha" result="a1167z"></feOffset><feGaussianBlur stdDeviation="2.5" in="a1167z" result="a1168z"></feGaussianBlur><feFlood flood-color="rgba(255, 255, 255, 0.5)" result="a1169z"></feFlood><feComposite in="a1169z" in2="a1168z" operator="in" result="a1165z"></feComposite></filter><linearGradient id="idid_R1oXEDWSsg2105197706" x1="0.49751243781094523" x2="0.5024875621890548" y1="0" y2="1"><stop offset="0" stop-color="rgb(48, 85, 241)" stop-opacity="1"></stop><stop offset="1" stop-color="rgb(36, 63, 171)" stop-opacity="1"></stop></linearGradient></defs><mask id="a1166z" x="-10.5%" y="-12.5%" width="121.0%" height="125.0%"><rect x="-10.5%" y="-12.5%" width="121.0%" height="125.0%" fill="white"></rect><use href="#a1162z" fill="black"></use></mask><g filter="url(#a1164z)" mask="url(#a1166z)"><use fill="black" stroke="black" stroke-opacity="0" stroke-width="0" xlink:href="#a1162z" clip-path="url(#a1163z)"></use></g><use xlink:href="#a1162z" fill="url(#idid_R1oXEDWSsg2105197706)" clip-path="url(#a1163z)"></use></g><g><defs><path d="M 288 20 C 288 8.954 296.954 0 308 0 L 368 0 C 379.046 0 388 8.954 388 20 L 388 80 C 388 91.046 379.046 100 368 100 L 308 100 C 296.954 100 288 91.046 288 80 Z" id="a1170z"></path><filter id="a1172z" filterUnits="objectBoundingBox" x="-10.5%" y="-12.5%" width="121.0%" height="125.0%"><feOffset dx="0" dy="2" in="SourceAlpha" result="a1175z"></feOffset><feGaussianBlur stdDeviation="2.5" in="a1175z" result="a1176z"></feGaussianBlur><feFlood flood-color="rgba(255, 255, 255, 0.5)" result="a1177z"></feFlood><feComposite in="a1177z" in2="a1176z" operator="in" result="a1173z"></feComposite></filter><linearGradient id="idid_kktCl0qbRg27612906" x1="0.49751243781094523" x2="0.5024875621890548" y1="0" y2="1"><stop offset="0" stop-color="rgb(163, 200, 255)" stop-opacity="1"></stop><stop offset="1" stop-color="rgb(99, 162, 255)" stop-opacity="1"></stop></linearGradient></defs><mask id="a1174z" x="-10.5%" y="-12.5%" width="121.0%" height="125.0%"><rect x="-10.5%" y="-12.5%" width="121.0%" height="125.0%" fill="white"></rect><use href="#a1170z" fill="black"></use></mask><g filter="url(#a1172z)" mask="url(#a1174z)"><use fill="black" stroke="black" stroke-opacity="0" stroke-width="0" xlink:href="#a1170z" clip-path="url(#a1171z)"></use></g><use xlink:href="#a1170z" fill="url(#idid_kktCl0qbRg27612906)" clip-path="url(#a1171z)"></use></g><g><defs><path d="M 0 20 C 0 8.954 8.954 0 20 0 L 80 0 C 91.046 0 100 8.954 100 20 L 100 80 C 100 91.046 91.046 100 80 100 L 20 100 C 8.954 100 0 91.046 0 80 Z" id="a1178z"></path><filter id="a1180z" filterUnits="objectBoundingBox" x="-10.5%" y="-12.5%" width="121.0%" height="125.0%"><feOffset dx="0" dy="2" in="SourceAlpha" result="a1183z"></feOffset><feGaussianBlur stdDeviation="2.5" in="a1183z" result="a1184z"></feGaussianBlur><feFlood flood-color="rgba(255, 255, 255, 0.5)" result="a1185z"></feFlood><feComposite in="a1185z" in2="a1184z" operator="in" result="a1181z"></feComposite></filter><linearGradient id="idid_PkCk3oR0rg1402729170" x1="0.49751243781094523" x2="0.5024875621890548" y1="0" y2="1"><stop offset="0" stop-color="rgb(255, 255, 255)" stop-opacity="1"></stop><stop offset="1" stop-color="rgb(237, 237, 230)" stop-opacity="1"></stop></linearGradient></defs><mask id="a1182z" x="-10.5%" y="-12.5%" width="121.0%" height="125.0%"><rect x="-10.5%" y="-12.5%" width="121.0%" height="125.0%" fill="white"></rect><use href="#a1178z" fill="black"></use></mask><g filter="url(#a1180z)" mask="url(#a1182z)"><use fill="black" stroke="black" stroke-opacity="0" stroke-width="0" xlink:href="#a1178z" clip-path="url(#a1179z)"></use></g><use xlink:href="#a1178z" fill="url(#idid_PkCk3oR0rg1402729170)" clip-path="url(#a1179z)"></use></g><g><defs><path d="M 0 157 C 0 145.954 8.954 137 20 137 L 80 137 C 91.046 137 100 145.954 100 157 L 100 217 C 100 228.046 91.046 237 80 237 L 20 237 C 8.954 237 0 228.046 0 217 Z" id="a1186z"></path><filter id="a1188z" filterUnits="objectBoundingBox" x="-10.5%" y="-12.5%" width="121.0%" height="125.0%"><feOffset dx="0" dy="2" in="SourceAlpha" result="a1191z"></feOffset><feGaussianBlur stdDeviation="2.5" in="a1191z" result="a1192z"></feGaussianBlur><feFlood flood-color="rgba(255, 255, 255, 0.5)" result="a1193z"></feFlood><feComposite in="a1193z" in2="a1192z" operator="in" result="a1189z"></feComposite></filter><linearGradient id="idid_ihxVJHiiQg1962103679" x1="0.49751243781094523" x2="0.5024875621890548" y1="0" y2="1"><stop offset="0" stop-color="rgb(239, 174, 212)" stop-opacity="1"></stop><stop offset="1" stop-color="rgb(204, 41, 84)" stop-opacity="1"></stop></linearGradient></defs><mask id="a1190z" x="-10.5%" y="-12.5%" width="121.0%" height="125.0%"><rect x="-10.5%" y="-12.5%" width="121.0%" height="125.0%" fill="white"></rect><use href="#a1186z" fill="black"></use></mask><g filter="url(#a1188z)" mask="url(#a1190z)"><use fill="black" stroke="black" stroke-opacity="0" stroke-width="0" xlink:href="#a1186z" clip-path="url(#a1187z)"></use></g><use xlink:href="#a1186z" fill="url(#idid_ihxVJHiiQg1962103679)" clip-path="url(#a1187z)"></use></g><g><defs><path d="M 288 155 C 288 143.954 296.954 135 308 135 L 368 135 C 379.046 135 388 143.954 388 155 L 388 215 C 388 226.046 379.046 235 368 235 L 308 235 C 296.954 235 288 226.046 288 215 Z" id="a1194z"></path><filter id="a1196z" filterUnits="objectBoundingBox" x="-10.5%" y="-12.5%" width="121.0%" height="125.0%"><feOffset dx="0" dy="2" in="SourceAlpha" result="a1199z"></feOffset><feGaussianBlur stdDeviation="2.5" in="a1199z" result="a1200z"></feGaussianBlur><feFlood flood-color="rgba(255, 255, 255, 0.5)" result="a1201z"></feFlood><feComposite in="a1201z" in2="a1200z" operator="in" result="a1197z"></feComposite></filter><linearGradient id="idid_aYnkKIXzKg1752223898" x1="0.49751243781094523" x2="0.5024875621890548" y1="0" y2="1"><stop offset="0" stop-color="rgb(222, 66, 143)" stop-opacity="1"></stop><stop offset="1" stop-color="rgb(211, 67, 222)" stop-opacity="1"></stop></linearGradient></defs><mask id="a1198z" x="-10.5%" y="-12.5%" width="121.0%" height="125.0%"><rect x="-10.5%" y="-12.5%" width="121.0%" height="125.0%" fill="white"></rect><use href="#a1194z" fill="black"></use></mask><g filter="url(#a1196z)" mask="url(#a1198z)"><use fill="black" stroke="black" stroke-opacity="0" stroke-width="0" xlink:href="#a1194z" clip-path="url(#a1195z)"></use></g><use xlink:href="#a1194z" fill="url(#idid_aYnkKIXzKg1752223898)" clip-path="url(#a1195z)"></use></g><g><defs><path d="M 150 157 C 150 145.954 158.954 137 170 137 L 230 137 C 241.046 137 250 145.954 250 157 L 250 217 C 250 228.046 241.046 237 230 237 L 170 237 C 158.954 237 150 228.046 150 217 Z" id="a1202z"></path><filter id="a1204z" filterUnits="objectBoundingBox" x="-10.5%" y="-12.5%" width="121.0%" height="125.0%"><feOffset dx="0" dy="2" in="SourceAlpha" result="a1207z"></feOffset><feGaussianBlur stdDeviation="2.5" in="a1207z" result="a1208z"></feGaussianBlur><feFlood flood-color="rgba(255, 255, 255, 0.5)" result="a1209z"></feFlood><feComposite in="a1209z" in2="a1208z" operator="in" result="a1205z"></feComposite></filter><linearGradient id="idid_WyNh7hQkug-872757147" x1="0.49751243781094523" x2="0.5024875621890548" y1="0" y2="1"><stop offset="0" stop-color="rgb(217, 231, 255)" stop-opacity="1"></stop><stop offset="1" stop-color="rgb(173, 203, 255)" stop-opacity="1"></stop></linearGradient></defs><mask id="a1206z" x="-10.5%" y="-12.5%" width="121.0%" height="125.0%"><rect x="-10.5%" y="-12.5%" width="121.0%" height="125.0%" fill="white"></rect><use href="#a1202z" fill="black"></use></mask><g filter="url(#a1204z)" mask="url(#a1206z)"><use fill="black" stroke="black" stroke-opacity="0" stroke-width="0" xlink:href="#a1202z" clip-path="url(#a1203z)"></use></g><use xlink:href="#a1202z" fill="url(#idid_WyNh7hQkug-872757147)" clip-path="url(#a1203z)"></use></g></g></g></svg>