<svg xmlns="http://www.w3.org/2000/svg" xmlns:xlink="http://www.w3.org/1999/xlink" width="524" height="421" fill="none" overflow="visible"><g><g><g><defs><linearGradient id="idid_H6GEK05J1g534884715" x1="0.49751243781094523" x2="0.5024875621890548" y1="0" y2="1"><stop offset="0" stop-color="rgb(99, 141, 236)" stop-opacity="1"></stop><stop offset="1" stop-color="rgba(92, 105, 247, 0)" stop-opacity="0"></stop></linearGradient></defs><path d="M 0 49 C 0 31.327 14.327 17 32 17 L 464 17 C 481.673 17 496 31.327 496 49 L 496 301 C 496 318.673 481.673 333 464 333 L 32 333 C 14.327 333 0 318.673 0 301 Z" fill="url(#idid_H6GEK05J1g534884715)"></path></g><g><defs><path d="M 0 32 C 0 14.327 14.327 0 32 0 L 215.167 0 C 221.801 0 228.139 2.746 232.676 7.586 L 259.259 35.943 C 262.284 39.169 266.509 41 270.932 41 L 464 41 C 481.673 41 496 55.327 496 73 L 496 325 C 496 342.673 481.673 357 464 357 L 32 357 C 14.327 357 0 342.673 0 325 Z" id="a1084z"></path><filter id="a1086z" filterUnits="objectBoundingBox" x="-5.6%" y="-6.2%" width="111.3%" height="112.3%"><feOffset dx="7" dy="-1" in="SourceAlpha" result="a1089z"></feOffset><feGaussianBlur stdDeviation="5" in="a1089z" result="a1090z"></feGaussianBlur><feFlood flood-color="rgba(255, 255, 255, 0.35)" result="a1091z"></feFlood><feComposite in="a1091z" in2="a1090z" operator="in" result="a1087z"></feComposite></filter><linearGradient id="idid_QLm8IQYGPg534884715" x1="0.49751243781094523" x2="0.5024875621890548" y1="0" y2="1"><stop offset="0" stop-color="rgb(99, 141, 236)" stop-opacity="1"></stop><stop offset="1" stop-color="rgba(92, 105, 247, 0)" stop-opacity="0"></stop></linearGradient></defs><mask id="a1088z" x="-5.6%" y="-6.2%" width="111.3%" height="112.3%"><rect x="-5.6%" y="-6.2%" width="111.3%" height="112.3%" fill="white"></rect><use href="#a1084z" fill="black"></use></mask><g filter="url(#a1086z)" mask="url(#a1088z)"><use fill="black" stroke="black" stroke-width="0" xlink:href="#a1084z" clip-path="url(#a1085z)"></use></g><use xlink:href="#a1084z" fill="url(#idid_QLm8IQYGPg534884715)" clip-path="url(#a1085z)" stroke-width="0"></use></g></g><g transform="translate(28 64)"><g><defs><linearGradient id="idid_wbTLg8NSqg2007273700" x1="0.49751243781094523" x2="0.5024875621890548" y1="0" y2="1"><stop offset="0" stop-color="rgb(103, 147, 240)" stop-opacity="1"></stop><stop offset="1" stop-color="rgb(38, 66, 192)" stop-opacity="1"></stop></linearGradient></defs><path d="M 0 42 C 0 24.327 14.327 10 32 10 L 464 10 C 481.673 10 496 24.327 496 42 L 496 294 C 496 311.673 481.673 326 464 326 L 32 326 C 14.327 326 0 311.673 0 294 Z" fill="url(#idid_wbTLg8NSqg2007273700)" stroke-width="0.5" stroke="rgba(255, 255, 255, 0.58)"></path></g><g><defs><path d="M 0 32 C 0 14.327 14.327 0 32 0 L 215.167 0 C 221.801 0 228.139 2.746 232.676 7.586 L 259.259 35.943 C 262.284 39.169 266.509 41 270.932 41 L 464 41 C 481.673 41 496 55.327 496 73 L 496 325 C 496 342.673 481.673 357 464 357 L 32 357 C 14.327 357 0 342.673 0 325 Z" id="a1094z"></path><filter id="a1096z" filterUnits="objectBoundingBox" x="-8.2%" y="-11.4%" width="116.4%" height="122.8%"><feOffset dx="4" dy="-4" in="SourceAlpha" result="a1099z"></feOffset><feGaussianBlur stdDeviation="8.5" in="a1099z" result="a1100z"></feGaussianBlur><feFlood flood-color="rgba(255, 255, 255, 0.63)" result="a1101z"></feFlood><feComposite in="a1101z" in2="a1100z" operator="in" result="a1097z"></feComposite></filter><linearGradient id="idid_bVIBFEZLJg2007273700" x1="0.49751243781094523" x2="0.5024875621890548" y1="0" y2="1"><stop offset="0" stop-color="rgb(103, 147, 240)" stop-opacity="1"></stop><stop offset="1" stop-color="rgb(38, 66, 192)" stop-opacity="1"></stop></linearGradient></defs><mask id="a1098z" x="-8.2%" y="-11.4%" width="116.4%" height="122.8%"><rect x="-8.2%" y="-11.4%" width="116.4%" height="122.8%" fill="white"></rect><use href="#a1094z" fill="black"></use></mask><g filter="url(#a1096z)" mask="url(#a1098z)"><use stroke-width="0.5" stroke="black" fill="black" xlink:href="#a1094z" clip-path="url(#a1095z)"></use></g><use xlink:href="#a1094z" fill="url(#idid_bVIBFEZLJg2007273700)" clip-path="url(#a1095z)" stroke-width="0.5" stroke="rgba(255, 255, 255, 0.58)"></use></g></g><g transform="translate(127.661 65.339) rotate(90 108.75 180)"><g><g><defs><path d="M 0 160 C 0 148.954 8.954 140 20 140 L 22 140 C 33.046 140 42 148.954 42 160 L 42 340 C 42 351.046 33.046 360 22 360 L 20 360 C 8.954 360 0 351.046 0 340 Z" id="a1102z"></path><filter id="a1104z" filterUnits="objectBoundingBox" x="-25.0%" y="-5.7%" width="150.0%" height="111.4%"><feOffset dx="0" dy="2" in="SourceAlpha" result="a1107z"></feOffset><feGaussianBlur stdDeviation="2.5" in="a1107z" result="a1108z"></feGaussianBlur><feFlood flood-color="rgba(255, 255, 255, 0.5)" result="a1109z"></feFlood><feComposite in="a1109z" in2="a1108z" operator="in" result="a1105z"></feComposite></filter><linearGradient id="idid_P0ksZYYt0g324451091" x1="0.49751243781094523" x2="0.5024875621890548" y1="0" y2="1"><stop offset="0" stop-color="rgb(255, 255, 255)" stop-opacity="1"></stop><stop offset="1" stop-color="rgb(214, 238, 255)" stop-opacity="1"></stop></linearGradient></defs><mask id="a1106z" x="-25.0%" y="-5.7%" width="150.0%" height="111.4%"><rect x="-25.0%" y="-5.7%" width="150.0%" height="111.4%" fill="white"></rect><use href="#a1102z" fill="black"></use></mask><g filter="url(#a1104z)" mask="url(#a1106z)"><use fill="black" stroke="black" stroke-opacity="0" stroke-width="0" xlink:href="#a1102z" clip-path="url(#a1103z)"></use></g><use xlink:href="#a1102z" fill="url(#idid_P0ksZYYt0g324451091)" clip-path="url(#a1103z)"></use></g><g><defs><path d="M 60.88 20 C 60.88 8.954 69.834 0 80.88 0 L 81.88 0 L 82.88 0 C 93.926 0 102.88 8.954 102.88 20 L 102.88 340 C 102.88 351.046 93.926 360 82.88 360 L 80.88 360 C 69.834 360 60.88 351.046 60.88 340 Z" id="a1110z"></path><filter id="a1112z" filterUnits="objectBoundingBox" x="-25.0%" y="-3.5%" width="150.0%" height="106.9%"><feOffset dx="0" dy="2" in="SourceAlpha" result="a1115z"></feOffset><feGaussianBlur stdDeviation="2.5" in="a1115z" result="a1116z"></feGaussianBlur><feFlood flood-color="rgba(255, 255, 255, 0.5)" result="a1117z"></feFlood><feComposite in="a1117z" in2="a1116z" operator="in" result="a1113z"></feComposite></filter><linearGradient id="idid_ZfYZLJ3x7g324451091" x1="0.49751243781094523" x2="0.5024875621890548" y1="0" y2="1"><stop offset="0" stop-color="rgb(255, 255, 255)" stop-opacity="1"></stop><stop offset="1" stop-color="rgb(214, 238, 255)" stop-opacity="1"></stop></linearGradient></defs><mask id="a1114z" x="-25.0%" y="-3.5%" width="150.0%" height="106.9%"><rect x="-25.0%" y="-3.5%" width="150.0%" height="106.9%" fill="white"></rect><use href="#a1110z" fill="black"></use></mask><g filter="url(#a1112z)" mask="url(#a1114z)"><use fill="black" stroke="black" stroke-opacity="0" stroke-width="0" xlink:href="#a1110z" clip-path="url(#a1111z)"></use></g><use xlink:href="#a1110z" fill="url(#idid_ZfYZLJ3x7g324451091)" clip-path="url(#a1111z)"></use></g><g><defs><path d="M 119.76 52 C 119.76 40.954 128.714 32 139.76 32 L 141.76 32 C 152.805 32 161.76 40.954 161.76 52 L 161.76 340 C 161.76 351.046 152.805 360 141.76 360 L 139.76 360 C 128.714 360 119.76 351.046 119.76 340 Z" id="a1118z"></path><filter id="a1120z" filterUnits="objectBoundingBox" x="-25.0%" y="-3.8%" width="150.0%" height="107.6%"><feOffset dx="0" dy="2" in="SourceAlpha" result="a1123z"></feOffset><feGaussianBlur stdDeviation="2.5" in="a1123z" result="a1124z"></feGaussianBlur><feFlood flood-color="rgba(255, 255, 255, 0.5)" result="a1125z"></feFlood><feComposite in="a1125z" in2="a1124z" operator="in" result="a1121z"></feComposite></filter><linearGradient id="idid_jaHC8o4vug324451091" x1="0.49751243781094523" x2="0.5024875621890548" y1="0" y2="1"><stop offset="0" stop-color="rgb(255, 255, 255)" stop-opacity="1"></stop><stop offset="1" stop-color="rgb(214, 238, 255)" stop-opacity="1"></stop></linearGradient></defs><mask id="a1122z" x="-25.0%" y="-3.8%" width="150.0%" height="107.6%"><rect x="-25.0%" y="-3.8%" width="150.0%" height="107.6%" fill="white"></rect><use href="#a1118z" fill="black"></use></mask><g filter="url(#a1120z)" mask="url(#a1122z)"><use fill="black" stroke="black" stroke-opacity="0" stroke-width="0" xlink:href="#a1118z" clip-path="url(#a1119z)"></use></g><use xlink:href="#a1118z" fill="url(#idid_jaHC8o4vug324451091)" clip-path="url(#a1119z)"></use></g><g><defs><path d="M 175.639 197 C 175.639 185.954 184.594 177 195.639 177 L 197.639 177 C 208.685 177 217.639 185.954 217.639 197 L 217.639 340 C 217.639 351.046 208.685 360 197.639 360 L 195.639 360 C 184.594 360 175.639 351.046 175.639 340 Z" id="a1126z"></path><filter id="a1128z" filterUnits="objectBoundingBox" x="-25.0%" y="-6.8%" width="150.0%" height="113.7%"><feOffset dx="0" dy="2" in="SourceAlpha" result="a1131z"></feOffset><feGaussianBlur stdDeviation="2.5" in="a1131z" result="a1132z"></feGaussianBlur><feFlood flood-color="rgba(255, 255, 255, 0.5)" result="a1133z"></feFlood><feComposite in="a1133z" in2="a1132z" operator="in" result="a1129z"></feComposite></filter><linearGradient id="idid_kekkvGtLsg324451091" x1="0.49751243781094523" x2="0.5024875621890548" y1="0" y2="1"><stop offset="0" stop-color="rgb(255, 255, 255)" stop-opacity="1"></stop><stop offset="1" stop-color="rgb(214, 238, 255)" stop-opacity="1"></stop></linearGradient></defs><mask id="a1130z" x="-25.0%" y="-6.8%" width="150.0%" height="113.7%"><rect x="-25.0%" y="-6.8%" width="150.0%" height="113.7%" fill="white"></rect><use href="#a1126z" fill="black"></use></mask><g filter="url(#a1128z)" mask="url(#a1130z)"><use fill="black" stroke="black" stroke-opacity="0" stroke-width="0" xlink:href="#a1126z" clip-path="url(#a1127z)"></use></g><use xlink:href="#a1126z" fill="url(#idid_kekkvGtLsg324451091)" clip-path="url(#a1127z)"></use></g></g></g><g><defs><path d="M 6.646 19.809 C 29.197 19.809 29.867 -14.926 29.867 7.596 C 29.867 30.119 74.985 33.222 50.23 33.432 C 38.954 33.432 32.267 42.719 29.873 47.026 C 27.479 51.334 26.164 53.534 26.164 42.273 C 26.164 19.75 -15.905 19.809 6.646 19.809 Z" transform="translate(455.704 131.401) rotate(255 28.75 25.25)" id="a1134z"></path><filter id="a1136z" filterUnits="objectBoundingBox" x="-10.9%" y="-14.4%" width="121.9%" height="128.9%"><feOffset dx="0" dy="1" in="SourceAlpha" result="a1139z"></feOffset><feGaussianBlur stdDeviation="1.5" in="a1139z" result="a1140z"></feGaussianBlur><feFlood flood-color="rgba(255, 255, 255, 0.5)" result="a1141z"></feFlood><feComposite in="a1141z" in2="a1140z" operator="in" result="a1137z"></feComposite></filter><linearGradient id="idid_EBBfXoErog-1146742222" x1="0.49751243781094523" x2="0.5024875621890548" y1="0" y2="1"><stop offset="0" stop-color="rgb(233, 77, 161)" stop-opacity="1"></stop><stop offset="1" stop-color="rgb(255, 107, 186)" stop-opacity="1"></stop></linearGradient></defs><mask id="a1138z" x="-10.9%" y="-14.4%" width="121.9%" height="128.9%"><rect x="-10.9%" y="-14.4%" width="121.9%" height="128.9%" fill="white"></rect><use href="#a1134z" fill="black"></use></mask><g filter="url(#a1136z)" mask="url(#a1138z)"><use fill="black" stroke="black" stroke-opacity="0" stroke-width="0" xlink:href="#a1134z" clip-path="url(#a1135z)"></use></g><use xlink:href="#a1134z" fill="url(#idid_EBBfXoErog-1146742222)" clip-path="url(#a1135z)"></use></g></g></svg>