<svg xmlns="http://www.w3.org/2000/svg" xmlns:xlink="http://www.w3.org/1999/xlink" width="524" height="421" fill="none" overflow="visible"><g><g><g><defs><linearGradient id="idid_QSsL2Knc4g534884715" x1="0.49751243781094523" x2="0.5024875621890548" y1="0" y2="1"><stop offset="0" stop-color="rgb(99, 141, 236)" stop-opacity="1"></stop><stop offset="1" stop-color="rgba(92, 105, 247, 0)" stop-opacity="0"></stop></linearGradient></defs><path d="M 0 49 C 0 31.327 14.327 17 32 17 L 464 17 C 481.673 17 496 31.327 496 49 L 496 301 C 496 318.673 481.673 333 464 333 L 32 333 C 14.327 333 0 318.673 0 301 Z" fill="url(#idid_QSsL2Knc4g534884715)"></path></g><g><defs><path d="M 0 32 C 0 14.327 14.327 0 32 0 L 215.167 0 C 221.801 0 228.139 2.746 232.676 7.586 L 259.259 35.943 C 262.284 39.169 266.509 41 270.932 41 L 464 41 C 481.673 41 496 55.327 496 73 L 496 325 C 496 342.673 481.673 357 464 357 L 32 357 C 14.327 357 0 342.673 0 325 Z" id="a1014z"></path><filter id="a1016z" filterUnits="objectBoundingBox" x="-5.6%" y="-6.2%" width="111.3%" height="112.3%"><feOffset dx="7" dy="-1" in="SourceAlpha" result="a1019z"></feOffset><feGaussianBlur stdDeviation="5" in="a1019z" result="a1020z"></feGaussianBlur><feFlood flood-color="rgba(255, 255, 255, 0.35)" result="a1021z"></feFlood><feComposite in="a1021z" in2="a1020z" operator="in" result="a1017z"></feComposite></filter><linearGradient id="idid_edzJxFhhWg534884715" x1="0.49751243781094523" x2="0.5024875621890548" y1="0" y2="1"><stop offset="0" stop-color="rgb(99, 141, 236)" stop-opacity="1"></stop><stop offset="1" stop-color="rgba(92, 105, 247, 0)" stop-opacity="0"></stop></linearGradient></defs><mask id="a1018z" x="-5.6%" y="-6.2%" width="111.3%" height="112.3%"><rect x="-5.6%" y="-6.2%" width="111.3%" height="112.3%" fill="white"></rect><use href="#a1014z" fill="black"></use></mask><g filter="url(#a1016z)" mask="url(#a1018z)"><use fill="black" stroke="black" stroke-width="0" xlink:href="#a1014z" clip-path="url(#a1015z)"></use></g><use xlink:href="#a1014z" fill="url(#idid_edzJxFhhWg534884715)" clip-path="url(#a1015z)" stroke-width="0"></use></g></g><g transform="translate(28 64)"><g><defs><linearGradient id="idid_A_bQAkvhag2007273700" x1="0.49751243781094523" x2="0.5024875621890548" y1="0" y2="1"><stop offset="0" stop-color="rgb(103, 147, 240)" stop-opacity="1"></stop><stop offset="1" stop-color="rgb(38, 66, 192)" stop-opacity="1"></stop></linearGradient></defs><path d="M 0 42 C 0 24.327 14.327 10 32 10 L 464 10 C 481.673 10 496 24.327 496 42 L 496 294 C 496 311.673 481.673 326 464 326 L 32 326 C 14.327 326 0 311.673 0 294 Z" fill="url(#idid_A_bQAkvhag2007273700)" stroke-width="0.5" stroke="rgba(255, 255, 255, 0.58)"></path></g><g><defs><path d="M 0 32 C 0 14.327 14.327 0 32 0 L 215.167 0 C 221.801 0 228.139 2.746 232.676 7.586 L 259.259 35.943 C 262.284 39.169 266.509 41 270.932 41 L 464 41 C 481.673 41 496 55.327 496 73 L 496 325 C 496 342.673 481.673 357 464 357 L 32 357 C 14.327 357 0 342.673 0 325 Z" id="a1024z"></path><filter id="a1026z" filterUnits="objectBoundingBox" x="-8.2%" y="-11.4%" width="116.4%" height="122.8%"><feOffset dx="4" dy="-4" in="SourceAlpha" result="a1029z"></feOffset><feGaussianBlur stdDeviation="8.5" in="a1029z" result="a1030z"></feGaussianBlur><feFlood flood-color="rgba(255, 255, 255, 0.63)" result="a1031z"></feFlood><feComposite in="a1031z" in2="a1030z" operator="in" result="a1027z"></feComposite></filter><linearGradient id="idid_OAEH2O0Kwg2007273700" x1="0.49751243781094523" x2="0.5024875621890548" y1="0" y2="1"><stop offset="0" stop-color="rgb(103, 147, 240)" stop-opacity="1"></stop><stop offset="1" stop-color="rgb(38, 66, 192)" stop-opacity="1"></stop></linearGradient></defs><mask id="a1028z" x="-8.2%" y="-11.4%" width="116.4%" height="122.8%"><rect x="-8.2%" y="-11.4%" width="116.4%" height="122.8%" fill="white"></rect><use href="#a1024z" fill="black"></use></mask><g filter="url(#a1026z)" mask="url(#a1028z)"><use stroke-width="0.5" stroke="black" fill="black" xlink:href="#a1024z" clip-path="url(#a1025z)"></use></g><use xlink:href="#a1024z" fill="url(#idid_OAEH2O0Kwg2007273700)" clip-path="url(#a1025z)" stroke-width="0.5" stroke="rgba(255, 255, 255, 0.58)"></use></g></g><g transform="translate(101 138)"><g><path d="M 0 20 C 0 8.954 8.954 0 20 0 L 27.487 0 C 38.532 0 47.487 8.954 47.487 20 L 47.487 185.902 C 47.487 196.947 38.532 205.902 27.487 205.902 L 20 205.902 C 8.954 205.902 0 196.947 0 185.902 Z" fill="rgb(119, 148, 226)"></path><g><defs><path d="M 0 131.525 C 0 120.479 8.954 111.525 20 111.525 L 27 111.525 C 38.046 111.525 47 120.479 47 131.525 L 47 218.525 C 47 229.57 38.046 238.525 27 238.525 L 20 238.525 C 8.954 238.525 0 229.57 0 218.525 Z" id="a1034z"></path><filter id="a1036z" filterUnits="objectBoundingBox" x="-22.3%" y="-9.8%" width="144.7%" height="119.7%"><feOffset dx="0" dy="2" in="SourceAlpha" result="a1039z"></feOffset><feGaussianBlur stdDeviation="2.5" in="a1039z" result="a1040z"></feGaussianBlur><feFlood flood-color="rgba(255, 255, 255, 0.5)" result="a1041z"></feFlood><feComposite in="a1041z" in2="a1040z" operator="in" result="a1037z"></feComposite></filter><linearGradient id="idid_YuBCn8IDcg195962561" x1="0.49751243781094523" x2="0.5024875621890548" y1="0" y2="1"><stop offset="0" stop-color="rgb(255, 255, 255)" stop-opacity="1"></stop><stop offset="1" stop-color="rgb(219, 240, 255)" stop-opacity="1"></stop></linearGradient></defs><mask id="a1038z" x="-22.3%" y="-9.8%" width="144.7%" height="119.7%"><rect x="-22.3%" y="-9.8%" width="144.7%" height="119.7%" fill="white"></rect><use href="#a1034z" fill="black"></use></mask><g filter="url(#a1036z)" mask="url(#a1038z)"><use fill="black" stroke="black" stroke-opacity="0" stroke-width="0" xlink:href="#a1034z" clip-path="url(#a1035z)"></use></g><use xlink:href="#a1034z" fill="url(#idid_YuBCn8IDcg195962561)" clip-path="url(#a1035z)"></use></g></g><g transform="translate(83.577 0)"><path d="M 0 20 C 0 8.954 8.954 0 20 0 L 27.487 0 C 38.532 0 47.487 8.954 47.487 20 L 47.487 185.902 C 47.487 196.947 38.532 205.902 27.487 205.902 L 20 205.902 C 8.954 205.902 0 196.947 0 185.902 Z" fill="rgb(119, 148, 226)"></path><g><defs><path d="M 0 80.852 C 0 69.807 8.954 60.852 20 60.852 L 27 60.852 C 38.046 60.852 47 69.807 47 80.852 L 47 219.852 C 47 230.898 38.046 239.852 27 239.852 L 20 239.852 C 8.954 239.852 0 230.898 0 219.852 Z" id="a1044z"></path><filter id="a1046z" filterUnits="objectBoundingBox" x="-22.3%" y="-7.0%" width="144.7%" height="114.0%"><feOffset dx="0" dy="2" in="SourceAlpha" result="a1049z"></feOffset><feGaussianBlur stdDeviation="2.5" in="a1049z" result="a1050z"></feGaussianBlur><feFlood flood-color="rgba(255, 255, 255, 0.5)" result="a1051z"></feFlood><feComposite in="a1051z" in2="a1050z" operator="in" result="a1047z"></feComposite></filter><linearGradient id="idid_BOW5MHB2wg986002335" x1="0.49751243781094523" x2="0.5024875621890548" y1="0" y2="1"><stop offset="0" stop-color="rgb(151, 193, 255)" stop-opacity="1"></stop><stop offset="1" stop-color="rgb(173, 203, 255)" stop-opacity="1"></stop></linearGradient></defs><mask id="a1048z" x="-22.3%" y="-7.0%" width="144.7%" height="114.0%"><rect x="-22.3%" y="-7.0%" width="144.7%" height="114.0%" fill="white"></rect><use href="#a1044z" fill="black"></use></mask><g filter="url(#a1046z)" mask="url(#a1048z)"><use fill="black" stroke="black" stroke-opacity="0" stroke-width="0" xlink:href="#a1044z" clip-path="url(#a1045z)"></use></g><use xlink:href="#a1044z" fill="url(#idid_BOW5MHB2wg986002335)" clip-path="url(#a1045z)"></use></g></g><g transform="translate(155.757 0)"><path d="M 0 20 C 0 8.954 8.954 0 20 0 L 27.487 0 C 38.532 0 47.487 8.954 47.487 20 L 47.487 185.902 C 47.487 196.947 38.532 205.902 27.487 205.902 L 20 205.902 C 8.954 205.902 0 196.947 0 185.902 Z" fill="rgb(119, 148, 226)"></path><g><defs><path d="M 0 128.852 C 0 117.807 8.954 108.852 20 108.852 L 27.487 108.852 C 38.532 108.852 47.487 117.807 47.487 128.852 L 47.487 220 C 47.487 231.046 38.532 240 27.487 240 L 20 240 C 8.954 240 0 231.046 0 220 Z" id="a1054z"></path><filter id="a1056z" filterUnits="objectBoundingBox" x="-22.1%" y="-9.5%" width="144.2%" height="119.1%"><feOffset dx="0" dy="2" in="SourceAlpha" result="a1059z"></feOffset><feGaussianBlur stdDeviation="2.5" in="a1059z" result="a1060z"></feGaussianBlur><feFlood flood-color="rgba(255, 255, 255, 0.5)" result="a1061z"></feFlood><feComposite in="a1061z" in2="a1060z" operator="in" result="a1057z"></feComposite></filter><linearGradient id="idid_CY21JYs3Hg-1313611864" x1="0.49751243781094523" x2="0.5024875621890548" y1="0" y2="1"><stop offset="0" stop-color="rgb(255, 255, 255)" stop-opacity="1"></stop><stop offset="1" stop-color="rgb(204, 223, 255)" stop-opacity="1"></stop></linearGradient></defs><mask id="a1058z" x="-22.1%" y="-9.5%" width="144.2%" height="119.1%"><rect x="-22.1%" y="-9.5%" width="144.2%" height="119.1%" fill="white"></rect><use href="#a1054z" fill="black"></use></mask><g filter="url(#a1056z)" mask="url(#a1058z)"><use fill="black" stroke="black" stroke-opacity="0" stroke-width="0" xlink:href="#a1054z" clip-path="url(#a1055z)"></use></g><use xlink:href="#a1054z" fill="url(#idid_CY21JYs3Hg-1313611864)" clip-path="url(#a1055z)"></use></g></g><g transform="translate(239.333 0)"><path d="M 0 20 C 0 8.954 8.954 0 20 0 L 27.487 0 C 38.532 0 47.487 8.954 47.487 20 L 47.487 185.902 C 47.487 196.947 38.532 205.902 27.487 205.902 L 20 205.902 C 8.954 205.902 0 196.947 0 185.902 Z" fill="rgb(119, 148, 226)"></path><g><defs><path d="M 0 65.852 C 0 54.807 8.954 45.852 20 45.852 L 27 45.852 C 38.046 45.852 47 54.807 47 65.852 L 47 219.852 C 47 230.898 38.046 239.852 27 239.852 L 20 239.852 C 8.954 239.852 0 230.898 0 219.852 Z" id="a1064z"></path><filter id="a1066z" filterUnits="objectBoundingBox" x="-22.3%" y="-6.4%" width="144.7%" height="112.9%"><feOffset dx="0" dy="2" in="SourceAlpha" result="a1069z"></feOffset><feGaussianBlur stdDeviation="2.5" in="a1069z" result="a1070z"></feGaussianBlur><feFlood flood-color="rgba(255, 255, 255, 0.5)" result="a1071z"></feFlood><feComposite in="a1071z" in2="a1070z" operator="in" result="a1067z"></feComposite></filter><linearGradient id="idid_lgC5CRYuCg904086311" x1="0.49751243781094523" x2="0.5024875621890548" y1="0" y2="1"><stop offset="0" stop-color="rgb(222, 66, 145)" stop-opacity="1"></stop><stop offset="1" stop-color="rgb(215, 67, 191)" stop-opacity="1"></stop></linearGradient></defs><mask id="a1068z" x="-22.3%" y="-6.4%" width="144.7%" height="112.9%"><rect x="-22.3%" y="-6.4%" width="144.7%" height="112.9%" fill="white"></rect><use href="#a1064z" fill="black"></use></mask><g filter="url(#a1066z)" mask="url(#a1068z)"><use fill="black" stroke="black" stroke-opacity="0" stroke-width="0" xlink:href="#a1064z" clip-path="url(#a1065z)"></use></g><use xlink:href="#a1064z" fill="url(#idid_lgC5CRYuCg904086311)" clip-path="url(#a1065z)"></use></g></g><g transform="translate(311.513 0)"><path d="M 0 20 C 0 8.954 8.954 0 20 0 L 27.487 0 C 38.532 0 47.487 8.954 47.487 20 L 47.487 185.902 C 47.487 196.947 38.532 205.902 27.487 205.902 L 20 205.902 C 8.954 205.902 0 196.947 0 185.902 Z" fill="rgb(119, 148, 226)"></path><g><defs><path d="M 0 33.852 C 0 22.807 8.954 13.852 20 13.852 L 27 13.852 C 38.046 13.852 47 22.807 47 33.852 L 47 219.852 C 47 230.898 38.046 239.852 27 239.852 L 20 239.852 C 8.954 239.852 0 230.898 0 219.852 Z" id="a1074z"></path><filter id="a1076z" filterUnits="objectBoundingBox" x="-22.3%" y="-5.5%" width="144.7%" height="111.1%"><feOffset dx="0" dy="2" in="SourceAlpha" result="a1079z"></feOffset><feGaussianBlur stdDeviation="2.5" in="a1079z" result="a1080z"></feGaussianBlur><feFlood flood-color="rgba(255, 255, 255, 0.5)" result="a1081z"></feFlood><feComposite in="a1081z" in2="a1080z" operator="in" result="a1077z"></feComposite></filter><linearGradient id="idid_IXjjL2kM3g1245295604" x1="0.49751243781094523" x2="0.5024875621890548" y1="0" y2="1"><stop offset="0" stop-color="rgb(153, 194, 255)" stop-opacity="1"></stop><stop offset="1" stop-color="rgb(207, 225, 255)" stop-opacity="1"></stop></linearGradient></defs><mask id="a1078z" x="-22.3%" y="-5.5%" width="144.7%" height="111.1%"><rect x="-22.3%" y="-5.5%" width="144.7%" height="111.1%" fill="white"></rect><use href="#a1074z" fill="black"></use></mask><g filter="url(#a1076z)" mask="url(#a1078z)"><use fill="black" stroke="black" stroke-opacity="0" stroke-width="0" xlink:href="#a1074z" clip-path="url(#a1075z)"></use></g><use xlink:href="#a1074z" fill="url(#idid_IXjjL2kM3g1245295604)" clip-path="url(#a1075z)"></use></g></g></g></g></svg>