<svg xmlns="http://www.w3.org/2000/svg" width="496" height="492.5" fill="none" overflow="visible"><g><g transform="translate(0 218)"><g><defs><linearGradient id="idid_RM6cnWwDmg-688533128" x1="0.49751243781094523" x2="0.5024875621890548" y1="0" y2="1"><stop offset="0" stop-color="rgba(103, 146, 240, 0.6)" stop-opacity="0.6"></stop><stop offset="1" stop-color="rgba(38, 66, 191, 0.6)" stop-opacity="0.6"></stop></linearGradient></defs><path d="M 48 32 C 48 14.327 62.327 0 80 0 L 419 0 C 436.673 0 451 14.327 451 32 L 451 122 C 451 139.673 436.673 154 419 154 L 80 154 C 62.327 154 48 139.673 48 122 Z" fill="url(#idid_RM6cnWwDmg-688533128)" stroke-width="0.5" stroke="rgba(255, 255, 255, 0.58)"></path></g><g><defs><linearGradient id="idid_YY25PSmvUg-688533120" x1="0.49751243781094523" x2="0.5024875621890548" y1="0" y2="1"><stop offset="0" stop-color="rgba(103, 146, 240, 0.8)" stop-opacity="0.8"></stop><stop offset="1" stop-color="rgba(38, 66, 191, 0.8)" stop-opacity="0.8"></stop></linearGradient></defs><path d="M 20 71 C 20 53.327 34.327 39 52 39 L 444 39 C 461.673 39 476 53.327 476 71 L 476 181 C 476 198.673 461.673 213 444 213 L 52 213 C 34.327 213 20 198.673 20 181 Z" fill="url(#idid_YY25PSmvUg-688533120)" stroke-width="0.5" stroke="rgba(255, 255, 255, 0.58)"></path></g><g><defs><linearGradient id="idid_PFYIVPpgNg2007273700" x1="0.49751243781094523" x2="0.5024875621890548" y1="0" y2="1"><stop offset="0" stop-color="rgb(103, 147, 240)" stop-opacity="1"></stop><stop offset="1" stop-color="rgb(38, 66, 192)" stop-opacity="1"></stop></linearGradient></defs><path d="M 0 109 C 0 91.327 14.327 77 32 77 L 129.43 77 C 136.741 77 143.653 80.332 148.206 86.051 L 198.696 149.466 C 201.731 153.279 206.339 155.5 211.213 155.5 L 284.787 155.5 C 289.661 155.5 294.269 153.279 297.304 149.466 L 347.794 86.051 C 352.347 80.332 359.259 77 366.57 77 L 464 77 C 481.673 77 496 91.327 496 109 L 496 242.5 C 496 260.173 481.673 274.5 464 274.5 L 32 274.5 C 14.327 274.5 0 260.173 0 242.5 Z" fill="url(#idid_PFYIVPpgNg2007273700)" stroke-width="0.5" stroke="rgba(255, 255, 255, 0.58)"></path></g></g><g transform="translate(105.154 0)"><g><defs><linearGradient id="idid_R0tB2ZfCfg255374061" x1="0.49751243781094523" x2="0.5024875621890548" y1="0" y2="1"><stop offset="0" stop-color="rgb(99, 142, 237)" stop-opacity="1"></stop><stop offset="1" stop-color="rgb(47, 77, 198)" stop-opacity="1"></stop></linearGradient></defs><path d="M 86 10 C 86 -0.221 87.684 0.001 96 0 L 198.517 0 C 206.915 0 208.346 -0.031 208.346 10 C 208.346 20.031 208.346 160.5 208.346 160.5 L 274.309 160.669 C 287.962 160.669 295.343 176.668 286.481 187.054 L 157.762 337.902 C 151.387 345.372 139.851 345.39 133.453 337.941 L 3.893 187.093 C -5.018 176.718 2.354 160.669 16.031 160.669 L 86 160.669 C 86 160.669 86 20.222 86 10 Z" fill="url(#idid_R0tB2ZfCfg255374061)" stroke="rgba(255, 255, 255, 0.53)"></path></g></g><g transform="translate(48 407.693)"><path d="M 0 0 L 0.095 46.817" fill="transparent" stroke-width="25" stroke="rgb(255, 255, 255)" stroke-linecap="round"></path><path d="M 40.033 0 L 40.128 46.817" fill="transparent" stroke-width="25" stroke="rgb(255, 255, 255)" stroke-linecap="round"></path></g></g></svg>