<svg xmlns="http://www.w3.org/2000/svg" width="585" height="451" fill="none" overflow="visible"><g><g><defs><linearGradient id="idid_gUFqgQHpug-1476682293" x1="0.49751243781094523" x2="0.5024875621890548" y1="0" y2="1"><stop offset="0" stop-color="rgba(36, 48, 173, 0.6)" stop-opacity="0.6"></stop><stop offset="1" stop-color="rgba(92, 105, 247, 0.6)" stop-opacity="0.6"></stop></linearGradient></defs><path d="M 89 32 C 89 14.327 103.327 0 121 0 L 304.167 0 C 310.801 0 317.139 2.746 321.676 7.586 L 348.259 35.943 C 351.284 39.169 355.509 41 359.932 41 L 553 41 C 570.673 41 585 55.327 585 73 L 585 325 C 585 342.673 570.673 357 553 357 L 121 357 C 103.327 357 89 342.673 89 325 Z" fill="url(#idid_gUFqgQHpug-1476682293)" stroke="rgb(255, 255, 255)"></path></g><g><defs><linearGradient id="idid_vVEDQvJrZg-1476682409" x1="0.49751243781094523" x2="0.5024875621890548" y1="0" y2="1"><stop offset="0" stop-color="rgba(36, 48, 173, 0.8)" stop-opacity="0.8"></stop><stop offset="1" stop-color="rgba(92, 105, 247, 0.8)" stop-opacity="0.8"></stop></linearGradient></defs><path d="M 51 81 C 51 63.327 65.327 49 83 49 L 266.167 49 C 272.801 49 279.139 51.746 283.676 56.586 L 310.259 84.943 C 313.284 88.169 317.509 90 321.932 90 L 515 90 C 532.673 90 547 104.327 547 122 L 547 374 C 547 391.673 532.673 406 515 406 L 83 406 C 65.327 406 51 391.673 51 374 Z" fill="url(#idid_vVEDQvJrZg-1476682409)" stroke="rgb(255, 255, 255)"></path></g><g><defs><linearGradient id="idid_BUTRdOnqkg-231236987" x1="0.49751243781094523" x2="0.5024875621890548" y1="0" y2="1"><stop offset="0" stop-color="rgb(36, 48, 173)" stop-opacity="1"></stop><stop offset="1" stop-color="rgb(92, 105, 247)" stop-opacity="1"></stop></linearGradient></defs><path d="M 0 126 C 0 108.327 14.327 94 32 94 L 215.167 94 C 221.801 94 228.139 96.746 232.676 101.586 L 259.259 129.943 C 262.284 133.169 266.509 135 270.932 135 L 464 135 C 481.673 135 496 149.327 496 167 L 496 419 C 496 436.673 481.673 451 464 451 L 32 451 C 14.327 451 0 436.673 0 419 Z" fill="url(#idid_BUTRdOnqkg-231236987)" stroke="rgb(255, 255, 255)"></path></g><path d="M 0 0 L 69.063 0 M 0 76.035 L 69.063 76.035" transform="translate(99.123 259.451) rotate(-90 34.5 38)" fill="transparent" stroke-width="40" stroke="rgb(255, 255, 255)" stroke-linecap="round" stroke-linejoin="round"></path></g></svg>