<svg xmlns="http://www.w3.org/2000/svg" viewBox="0 0 128 128" fill="none">
  <g transform="translate(0.5, 22.5)">
    <g><g transform="translate(4.075 2)"><path d="M 0 68 C 0 66.895 0.895 66 2 66 L 117.189 66 C 118.294 66 119.189 66.895 119.189 68 L 119.189 77 C 119.189 78.105 118.294 79 117.189 79 L 2 79 C 0.895 79 0 78.105 0 77 Z" fill="rgba(75, 87, 219, 0.67)"></path><path d="M 0 51 C 0 49.895 0.895 49 2 49 L 117.189 49 C 118.294 49 119.189 49.895 119.189 51 L 119.189 60 C 119.189 61.105 118.294 62 117.189 62 L 2 62 C 0.895 62 0 61.105 0 60 Z" fill="rgba(75, 87, 219, 0.67)"></path><path d="M 0 34 C 0 32.895 0.895 32 2 32 L 117.189 32 C 118.294 32 119.189 32.895 119.189 34 L 119.189 43 C 119.189 44.105 118.294 45 117.189 45 L 2 45 C 0.895 45 0 44.105 0 43 Z" fill="rgba(75, 87, 219, 0.67)"></path><path d="M 0 17 C 0 15.895 0.895 15 2 15 L 117.189 15 C 118.294 15 119.189 15.895 119.189 17 L 119.189 26 C 119.189 27.105 118.294 28 117.189 28 L 2 28 C 0.895 28 0 27.105 0 26 Z" fill="rgba(75, 87, 219, 0.67)"></path><path d="M 0 2 C 0 0.895 0.895 0 2 0 L 55 0 C 56.105 0 57 0.895 57 2 L 57 9 C 57 10.105 56.105 11 55 11 L 2 11 C 0.895 11 0 10.105 0 9 Z" fill="rgba(75, 87, 219, 0.67)"></path></g><g transform="translate(7.811 0)"><path d="M 0 67 C 0 65.895 0.895 65 2 65 L 117.189 65 C 118.294 65 119.189 65.895 119.189 67 L 119.189 76 C 119.189 77.105 118.294 78 117.189 78 L 2 78 C 0.895 78 0 77.105 0 76 Z" fill="rgba(36, 48, 173, 0.3)"></path><path d="M 0 50 C 0 48.895 0.895 48 2 48 L 117.189 48 C 118.294 48 119.189 48.895 119.189 50 L 119.189 59 C 119.189 60.105 118.294 61 117.189 61 L 2 61 C 0.895 61 0 60.105 0 59 Z" fill="rgba(36, 48, 173, 0.3)"></path><path d="M 0 33 C 0 31.895 0.895 31 2 31 L 117.189 31 C 118.294 31 119.189 31.895 119.189 33 L 119.189 42 C 119.189 43.105 118.294 44 117.189 44 L 2 44 C 0.895 44 0 43.105 0 42 Z" fill="rgba(36, 48, 173, 0.3)"></path><path d="M 0 16 C 0 14.895 0.895 14 2 14 L 117.189 14 C 118.294 14 119.189 14.895 119.189 16 L 119.189 25 C 119.189 26.105 118.294 27 117.189 27 L 2 27 C 0.895 27 0 26.105 0 25 Z" fill="rgba(36, 48, 173, 0.3)"></path><path d="M 0 2 C 0 0.895 0.895 0 2 0 L 55 0 C 56.105 0 57 0.895 57 2 L 57 9 C 57 10.105 56.105 11 55 11 L 2 11 C 0.895 11 0 10.105 0 9 Z" fill="rgba(36, 48, 173, 0.3)"></path></g><g transform="translate(0 4)"><path d="M 0 68 C 0 66.895 0.895 66 2 66 L 117.189 66 C 118.294 66 119.189 66.895 119.189 68 L 119.189 77 C 119.189 78.105 118.294 79 117.189 79 L 2 79 C 0.895 79 0 78.105 0 77 Z" fill="rgb(75, 87, 219)"></path><path d="M 0 68 C 0 66.895 0.895 66 2 66 L 117.189 66 C 118.294 66 119.189 66.895 119.189 68 L 119.189 77 C 119.189 78.105 118.294 79 117.189 79 L 2 79 C 0.895 79 0 78.105 0 77 Z" fill="rgb(75, 87, 219)"></path><path d="M 0 51 C 0 49.895 0.895 49 2 49 L 117.189 49 C 118.294 49 119.189 49.895 119.189 51 L 119.189 60 C 119.189 61.105 118.294 62 117.189 62 L 2 62 C 0.895 62 0 61.105 0 60 Z" fill="rgb(75, 87, 219)"></path><path d="M 0 34 C 0 32.895 0.895 32 2 32 L 117.189 32 C 118.294 32 119.189 32.895 119.189 34 L 119.189 43 C 119.189 44.105 118.294 45 117.189 45 L 2 45 C 0.895 45 0 44.105 0 43 Z" fill="rgb(75, 87, 219)"></path><path d="M 0 17 C 0 15.895 0.895 15 2 15 L 117.189 15 C 118.294 15 119.189 15.895 119.189 17 L 119.189 26 C 119.189 27.105 118.294 28 117.189 28 L 2 28 C 0.895 28 0 27.105 0 26 Z" fill="rgb(75, 87, 219)"></path><path d="M 0 2 C 0 0.895 0.895 0 2 0 L 55 0 C 56.105 0 57 0.895 57 2 L 57 9 C 57 10.105 56.105 11 55 11 L 2 11 C 0.895 11 0 10.105 0 9 Z" fill="rgb(75, 87, 219)"></path></g></g>
  </g>
</svg>
